<?xml version="1.0" encoding="UTF-8" standalone="no"?>
<svg
   xmlns:dc="http://purl.org/dc/elements/1.1/"
   xmlns:cc="http://creativecommons.org/ns#"
   xmlns:rdf="http://www.w3.org/1999/02/22-rdf-syntax-ns#"
   xmlns:svg="http://www.w3.org/2000/svg"
   xmlns="http://www.w3.org/2000/svg"
   xmlns:sodipodi="http://sodipodi.sourceforge.net/DTD/sodipodi-0.dtd"
   xmlns:inkscape="http://www.inkscape.org/namespaces/inkscape"
   height="32px"
   id="Layer_1"
   style="enable-background:new 0 0 32 32;"
   version="1.1"
   viewBox="0 0 32 32"
   width="32px"
   xml:space="preserve"
   sodipodi:docname="legend2.svg"
   inkscape:version="0.92+devel unknown"><metadata
     id="metadata9"><rdf:RDF><cc:Work
         rdf:about=""><dc:format>image/svg+xml</dc:format><dc:type
           rdf:resource="http://purl.org/dc/dcmitype/StillImage" /><dc:title></dc:title></cc:Work></rdf:RDF></metadata><defs
     id="defs7" /><sodipodi:namedview
     pagecolor="#ffffff"
     bordercolor="#666666"
     inkscape:document-rotation="0"
     borderopacity="1"
     objecttolerance="10"
     gridtolerance="10"
     guidetolerance="10"
     inkscape:pageopacity="0"
     inkscape:pageshadow="2"
     inkscape:window-width="1762"
     inkscape:window-height="1265"
     id="namedview5"
     showgrid="false"
     inkscape:zoom="23.40625"
     inkscape:cx="16"
     inkscape:cy="16"
     inkscape:window-x="26"
     inkscape:window-y="23"
     inkscape:window-maximized="0"
     inkscape:current-layer="Layer_1" /><path
     d="M 6.7999985,11.2 H 24.80001 C 25.628,11.2 26.3,10.528 26.3,9.7 26.3,8.872 25.628,8.2 24.80001,8.2 H 6.7999985 C 5.972,8.2 5.3,8.872 5.3,9.7 c 0,0.828 0.672,1.5 1.4999985,1.5 z m 18.0000115,3 H 6.7999985 C 5.972,14.2 5.3,14.872 5.3,15.7 c 0,0.828 0.672,1.5 1.4999985,1.5 H 24.80001 C 25.628,17.2 26.3,16.528 26.3,15.7 c 0,-0.828 -0.672,-1.5 -1.49999,-1.5 z m 0,6 H 6.7999985 C 5.972,20.2 5.3,20.872 5.3,21.7 c 0,0.828 0.672,1.5 1.4999985,1.5 H 24.80001 C 25.628,23.2 26.3,22.528 26.3,21.7 c 0,-0.828 -0.672,-1.5 -1.49999,-1.5 z"
     id="path2"
     inkscape:connector-curvature="0"
     style="stroke-width:0.75" /></svg>