<?xml version="1.0" encoding="utf-8"?>
<!-- Generator: Adobe Illustrator 19.1.0, SVG Export Plug-In . SVG Version: 6.00 Build 0)  -->
<!DOCTYPE svg PUBLIC "-//W3C//DTD SVG 1.1//EN" "http://www.w3.org/Graphics/SVG/1.1/DTD/svg11.dtd">
<svg version="1.1" id="Layer_1" xmlns="http://www.w3.org/2000/svg" xmlns:xlink="http://www.w3.org/1999/xlink" x="0px" y="0px"
	 viewBox="0 0 176.179 172.152" style="enable-background:new 0 0 176.179 172.152;" xml:space="preserve">
<style type="text/css">
	.st0{fill:#333333;}
</style>
<g>
	<g>
		<path class="st0" d="M89.244,97.036c4.036-18.534,11.259-25.237,15.416-34.469l0.043-0.099c1.039-2.2,1.533-4.543,1.533-7.141
			c0-9.388-7.621-16.975-17.044-16.975s-16.975,7.587-16.975,16.975c0,2.598,0.554,5.023,1.594,7.223
			c4.122,9.25,11.328,15.936,15.381,34.469L89.244,97.036z M84.463,50.494c0-2.631,2.133-4.763,4.763-4.763
			c2.631,0,4.763,2.133,4.763,4.763c0,2.631-2.133,4.763-4.763,4.763C86.596,55.257,84.463,53.124,84.463,50.494z"/>
	</g>
	<g>
		<path class="st0" d="M37.081,94.068l-13.488,10.967c-3.591,2.92-3.446,6.533,0.388,8.047l43.014,16.991l20.175-17.865
			L37.081,94.068z M66.497,126.347L26.73,110.822c-2.237-0.873-2.341-2.974-0.254-4.68l10.858-8.872l43.913,16.089L66.497,126.347z"
			/>
	</g>
	<g>
		<path class="st0" d="M70.289,131.375l17.082,6.747c4.585,1.811,11.33,0.53,14.956-2.846l13.59-12.656l-25.449-9.217
			L70.289,131.375z"/>
	</g>
	<g>
		<path class="st0" d="M91.374,98.976c-0.208,1.005-1.109,1.732-2.13,1.732v-0.017c-1.039,0-1.905-0.693-2.148-1.732
			c-1.148-5.242-2.552-9.616-4.07-13.432l-18.171,15.416l53.697,19.223l20.073-18.694L94.798,87.135
			C93.524,90.567,92.351,94.445,91.374,98.976z"/>
	</g>
	<g>
		<path class="st0" d="M150.796,79.922L108.039,67.22c0.427-0.848,0.842-1.702,1.228-2.575l0.173-0.346
			c1.264-2.858,1.905-5.855,1.905-8.972c0-12.194-9.925-22.119-22.137-22.119c-12.194,0-22.102,9.925-22.119,22.119
			c0,3.256,0.693,6.426,2.079,9.319c0.369,0.815,0.759,1.607,1.157,2.392l-30.623,24.9l22.086,7.906l20.126-16.985
			c-1.885-4.287-3.888-7.854-5.765-11.198c-1.136-2.02-2.23-3.989-3.236-5.979c-0.376-0.74-0.751-1.48-1.094-2.231
			c-1.161-2.529-1.767-5.3-1.767-8.141c0-10.566,8.574-19.157,19.157-19.157c10.601,0,19.227,8.591,19.227,19.175
			c0,2.737-0.676,5.595-1.819,8.124c-0.52,1.188-1.102,2.354-1.716,3.518c-0.817,1.551-1.695,3.099-2.615,4.692
			c-0.361,0.644-0.728,1.299-1.097,1.963c-0.027,0.049-0.054,0.096-0.081,0.145l0.001-0.001c-1.384,2.494-2.804,5.161-4.172,8.179
			l-0.004-0.001c-0.029,0.064-0.057,0.133-0.085,0.197c-0.067,0.15-0.136,0.294-0.203,0.446l0.008,0.003
			c-0.279,0.629-0.559,1.258-0.833,1.921l45.29,14.646l12.311-11.465C156.571,84.76,155.362,81.278,150.796,79.922z M149.922,86.624
			l-9.847,9.114L99.773,82.853c1.676-3.654,3.424-6.805,5.077-9.755c0.67-1.188,1.318-2.348,1.947-3.508l41.627,12.507
			C151.077,82.895,151.759,84.924,149.922,86.624z"/>
	</g>
</g>
</svg>
